# xmcd
#
# Track frame offsets:
#	151
#	18785
#	40250
#	54273
#	73338
#	104103
#	129663
#	148757
#	174800
#	206820
#	237308
#
# Disc length: 3519 seconds
#
# Revision: 0
# Processed by: cddbd v1.5.1PL0 Copyright (c) Steve Scherf et al.
# Submitted via: dBpowerAMP V4.0
#
DISCID=a00dbd0b
DTITLE=新約-聖經 - Disc 65
DYEAR=2002
DGENRE=Vocal
TTITLE0=馬太福音第1章
TTITLE1=馬太福音第2章
TTITLE2=馬太福音第3章
TTITLE3=馬太福音第4章
TTITLE4=馬太福音第5章
TTITLE5=馬太福音第6章
TTITLE6=馬太福音第7章
TTITLE7=馬太福音第8章
TTITLE8=馬太福音第9章
TTITLE9=馬太福音第10章
TTITLE10=馬太福音第11章
EXTD=
EXTT0=
EXTT1=
EXTT2=
EXTT3=
EXTT4=
EXTT5=
EXTT6=
EXTT7=
EXTT8=
EXTT9=
EXTT10=
PLAYORDER=
